<svg width="516" height="375" viewBox="0 0 516 375" fill="none" xmlns="http://www.w3.org/2000/svg">
<path d="M515.249 189.76L460.949 16.46C458.649 9.06001 450.749 4.95994 443.349 7.25994L310.349 48.96C302.949 51.26 298.849 59.16 301.149 66.56L328.349 153.16C314.049 158.36 299.149 160.86 283.649 160.86C268.149 160.86 266.349 160.06 257.449 158.46C249.949 137.86 242.649 117.16 240.149 108.36C238.849 103.86 239.249 98.66 244.649 95.06L259.949 84.3599C271.149 76.5599 278.749 64.66 281.049 51.16L282.049 45.3599C285.049 28.1599 273.649 11.76 256.349 8.65996L210.549 0.559987C200.849 -1.14001 190.749 1.05994 182.649 6.75994L153.649 27.06L16.149 123.86C-1.05096 135.96 -5.15096 159.56 6.94904 176.76C9.54904 180.46 12.649 183.56 16.149 185.96C17.049 192.76 19.749 199.46 24.349 205.16C37.649 221.36 61.549 223.76 77.749 210.56C79.149 209.46 80.349 208.26 81.549 206.96L135.949 148.26L136.149 147.96L108.549 254.86C107.549 258.86 106.749 262.96 106.149 267.06C92.949 258.06 74.949 261.56 66.049 274.76C57.049 287.96 60.549 305.96 73.749 314.86C84.549 322.26 99.049 321.36 108.949 312.76C110.949 320.36 113.749 327.66 117.349 334.76L132.149 364.06C132.949 365.66 135.449 374.66 135.449 374.66H252.249C252.249 374.66 245.249 347.36 211.749 331.86C213.249 331.06 214.749 330.16 216.149 329.16L285.249 363.36L291.749 350.16L228.449 318.76C253.249 292.26 251.849 250.76 225.349 225.96C213.149 214.56 197.149 208.26 180.449 208.26V222.96C208.549 222.96 231.449 245.76 231.449 273.96C231.449 302.16 208.649 324.96 180.449 324.96V339.66C197.649 339.66 214.049 346.96 225.449 359.76H146.349C145.949 358.86 145.549 358.06 145.149 357.16L130.349 327.86C119.449 306.36 116.749 281.66 122.749 258.36L174.049 59.46L53.749 171.66C44.349 180.36 29.649 179.86 20.949 170.46C12.249 161.06 12.749 146.36 22.149 137.66C22.949 136.96 23.749 136.26 24.549 135.66L162.049 38.8599L191.049 18.56C195.949 15.06 202.049 13.7599 207.949 14.8599L253.749 22.96C255.449 23.26 257.149 23.86 258.749 24.66H257.549C252.449 24.66 248.349 28.7599 248.349 33.8599C248.349 38.9599 248.349 34.36 248.349 34.66C248.849 39.16 252.449 42.66 256.949 42.96L255.249 46.16C251.049 54.16 241.149 57.16 233.249 52.96C230.349 51.46 227.949 49.06 226.449 46.16L217.449 50.8599C224.249 63.7599 240.249 68.76 253.149 61.96C257.849 59.46 261.749 55.5599 264.249 50.8599L266.849 45.8599L266.449 48.3599C264.749 57.9599 259.349 66.46 251.349 72.06L236.049 82.7599C224.649 90.6599 222.449 101.76 225.449 112.26C227.649 120.06 233.349 136.46 239.649 154.06C224.849 149.76 213.149 144.26 206.149 140.56L199.849 154.36C208.349 158.86 222.249 165.16 239.849 169.76C254.649 173.66 269.349 175.66 283.549 175.66C304.949 175.66 325.649 171.16 344.949 162.26C346.449 161.56 348.049 161.26 349.649 161.26C354.049 161.26 358.149 163.86 359.949 167.86C361.249 170.66 361.349 173.66 360.249 176.56C359.149 179.36 357.049 181.66 354.349 182.96C332.049 193.26 308.149 198.46 283.449 198.46C242.049 198.46 207.749 184.06 190.349 175.06L184.049 188.86C199.749 196.96 227.249 208.46 260.949 212.36C262.049 215.26 262.749 217.06 262.849 217.56L263.449 219.26L264.749 220.46C284.449 238.76 294.349 256.86 294.249 274.16C294.149 290.16 285.049 301.36 281.649 304.96C281.049 305.46 280.549 306.06 279.949 306.66L290.449 317.66C290.549 317.56 291.349 316.86 292.449 315.76C311.649 297.86 339.049 305.96 340.249 306.36L344.749 291.86C343.649 291.56 326.049 286.16 306.849 291.16C308.349 286.26 309.349 280.76 309.449 274.66C309.749 254.26 299.649 233.76 279.549 213.66C280.849 213.66 282.149 213.66 283.449 213.66C302.549 213.66 322.949 210.86 344.049 203.46L355.349 239.46C357.649 246.86 365.549 250.96 372.949 248.66L505.949 206.96C513.349 204.66 517.449 196.76 515.149 189.36L515.249 189.76ZM90.049 305.26C82.249 305.26 75.949 298.96 75.949 291.16C75.949 283.36 82.249 277.06 90.049 277.06C97.849 277.06 104.149 283.36 104.149 291.16C104.149 298.96 97.849 305.26 90.049 305.26ZM59.949 186.16C61.349 185.16 62.749 184.06 64.049 182.86L147.449 105.06L143.949 118.46H143.849L70.849 197.06C62.149 206.46 47.449 206.96 38.049 198.26C36.349 196.66 34.849 194.86 33.749 192.86C42.649 193.86 51.949 191.76 59.849 186.26L59.949 186.16ZM369.349 234.96L357.949 198.56C358.949 198.16 359.949 197.76 360.849 197.26C374.149 191.16 380.049 175.36 373.849 162.06C369.349 152.36 359.749 146.56 349.749 146.56C347.149 146.56 344.549 146.96 341.949 147.76L315.349 62.7599L447.149 21.46L501.149 193.56L369.349 234.86V234.96Z" fill="#651C32"/>
<path d="M436.727 52.1211L348.364 79.8123L351.056 88.4004L439.418 60.7092L436.727 52.1211Z" fill="#651C32"/>
<path d="M446.078 81.8511L357.716 109.542L360.407 118.13L448.77 90.4392L446.078 81.8511Z" fill="#651C32"/>
<path d="M455.434 111.511L367.072 139.202L369.763 147.79L458.126 120.099L455.434 111.511Z" fill="#651C32"/>
<path d="M403.049 175.56L385.449 206.86L393.249 211.26L407.549 185.96L427.949 190.86L468.149 142.46L461.149 136.76L424.649 180.76L403.049 175.56Z" fill="#651C32"/>
</svg>
